<svg width="10" height="11" viewBox="0 0 10 11" fill="none" xmlns="http://www.w3.org/2000/svg">
<path d="M4.56283 5.49541V7.39126C4.56283 7.51541 4.6047 7.61936 4.68846 7.70311C4.77222 7.78687 4.87617 7.82875 5.00031 7.82875C5.12445 7.82875 5.2284 7.78687 5.31216 7.70311C5.39592 7.61936 5.4378 7.51541 5.4378 7.39126V5.49541H7.33365C7.45779 5.49541 7.56174 5.45354 7.64549 5.36978C7.72925 5.28602 7.77113 5.18207 7.77113 5.05793C7.77113 4.93379 7.72925 4.82984 7.64549 4.74608C7.56174 4.66232 7.45779 4.62044 7.33365 4.62044H5.4378V2.7246C5.4378 2.60045 5.39592 2.4965 5.31216 2.41275C5.2284 2.32899 5.12445 2.28711 5.00031 2.28711C4.87617 2.28711 4.77222 2.32899 4.68846 2.41275C4.6047 2.4965 4.56283 2.60045 4.56283 2.7246V4.62044H2.66698C2.54283 4.62044 2.43888 4.66232 2.35513 4.74608C2.27137 4.82984 2.22949 4.93379 2.22949 5.05793C2.22949 5.18207 2.27137 5.28602 2.35513 5.36978C2.43888 5.45354 2.54283 5.49541 2.66698 5.49541H4.56283ZM1.09648 10.0162C0.801823 10.0162 0.552409 9.91417 0.348242 9.71C0.144076 9.50583 0.0419922 9.25642 0.0419922 8.96176V1.1541C0.0419922 0.859441 0.144076 0.610026 0.348242 0.405859C0.552409 0.201693 0.801823 0.0996094 1.09648 0.0996094H8.90414C9.1988 0.0996094 9.44822 0.201693 9.65238 0.405859C9.85655 0.610026 9.95863 0.859441 9.95863 1.1541V8.96176C9.95863 9.25642 9.85655 9.50583 9.65238 9.71C9.44822 9.91417 9.1988 10.0162 8.90414 10.0162H1.09648ZM1.09648 9.14126H8.90414C8.94902 9.14126 8.99016 9.12257 9.02756 9.08518C9.06495 9.04777 9.08365 9.00663 9.08365 8.96176V1.1541C9.08365 1.10922 9.06495 1.06808 9.02756 1.03068C8.99016 0.993291 8.94902 0.974595 8.90414 0.974595H1.09648C1.05161 0.974595 1.01047 0.993291 0.973065 1.03068C0.935673 1.06808 0.916978 1.10922 0.916978 1.1541V8.96176C0.916978 9.00663 0.935673 9.04777 0.973065 9.08518C1.01047 9.12257 1.05161 9.14126 1.09648 9.14126Z" fill="white"/>
</svg>
