<svg width="22" height="22" viewBox="0 0 22 22" fill="none" xmlns="http://www.w3.org/2000/svg">
<path d="M9.98661 12.0141H5.59873C5.31452 12.0141 5.07467 11.9164 4.87917 11.7209C4.68368 11.5254 4.58594 11.2855 4.58594 11.0013C4.58594 10.7171 4.68368 10.4773 4.87917 10.2818C5.07467 10.0863 5.31452 9.98856 5.59873 9.98856H9.98661V5.60069C9.98661 5.31647 10.0844 5.07662 10.2798 4.88113C10.4753 4.68564 10.7152 4.58789 10.9994 4.58789C11.2836 4.58789 11.5234 4.68564 11.7189 4.88113C11.9144 5.07662 12.0122 5.31647 12.0122 5.60069V9.98856H16.4C16.6842 9.98856 16.9241 10.0863 17.1196 10.2818C17.3151 10.4773 17.4128 10.7171 17.4128 11.0013C17.4128 11.2855 17.3151 11.5254 17.1196 11.7209C16.9241 11.9164 16.6842 12.0141 16.4 12.0141H12.0122V16.402C12.0122 16.6862 11.9144 16.926 11.7189 17.1215C11.5234 17.317 11.2836 17.4148 10.9994 17.4148C10.7152 17.4148 10.4753 17.317 10.2798 17.1215C10.0844 16.926 9.98661 16.6862 9.98661 16.402V12.0141Z" fill="#5534DA"/>
</svg>
