<svg width="34" height="34" viewBox="0 0 34 34" fill="none" xmlns="http://www.w3.org/2000/svg">
<circle cx="17" cy="17" r="16" fill="#A3C4A2" stroke="white" stroke-width="2"/>
<path d="M12.4193 23.0527V11.8527H17.6673C19.0113 11.8527 20.0353 12.1194 20.7393 12.6527C21.4433 13.1754 21.7953 13.8794 21.7953 14.7647C21.7953 15.3621 21.6566 15.8741 21.3793 16.3007C21.102 16.7167 20.7286 17.0421 20.2593 17.2767C19.8006 17.5007 19.2993 17.6127 18.7553 17.6127L19.0433 17.0367C19.6726 17.0367 20.238 17.1541 20.7393 17.3887C21.2406 17.6127 21.6353 17.9434 21.9233 18.3807C22.222 18.8181 22.3713 19.3621 22.3713 20.0127C22.3713 20.9727 22.0033 21.7194 21.2673 22.2527C20.5313 22.7861 19.438 23.0527 17.9873 23.0527H12.4193ZM14.4993 21.4207H17.8593C18.638 21.4207 19.2353 21.2927 19.6513 21.0367C20.0673 20.7807 20.2753 20.3701 20.2753 19.8047C20.2753 19.2501 20.0673 18.8447 19.6513 18.5887C19.2353 18.3221 18.638 18.1887 17.8593 18.1887H14.3393V16.5727H17.4433C18.1686 16.5727 18.7233 16.4447 19.1073 16.1887C19.502 15.9327 19.6993 15.5487 19.6993 15.0367C19.6993 14.5141 19.502 14.1247 19.1073 13.8687C18.7233 13.6127 18.1686 13.4847 17.4433 13.4847H14.4993V21.4207Z" fill="white"/>
</svg>
